<svg width="48" height="48" viewBox="0 0 48 48" fill="none" xmlns="http://www.w3.org/2000/svg">
<path d="M24.7071 39.2929C24.3166 39.6834 23.6834 39.6834 23.2929 39.2929L8.70711 24.7071C8.31658 24.3166 8.31658 23.6834 8.70711 23.2929L23.2929 8.70711C23.6834 8.31658 24.3166 8.31658 24.7071 8.70711L25.3929 9.39289C25.7834 9.78342 25.7834 10.4166 25.3929 10.8071L15.4071 20.7929C14.7771 21.4229 15.2233 22.5 16.1142 22.5H39C39.5523 22.5 40 22.9477 40 23.5V24.5C40 25.0523 39.5523 25.5 39 25.5H16.1142C15.2233 25.5 14.7771 26.5771 15.4071 27.2071L25.3929 37.1929C25.7834 37.5834 25.7834 38.2166 25.3929 38.6071L24.7071 39.2929Z" fill="white"/>
</svg>
