<svg width="48" height="48" viewBox="0 0 48 48" fill="none" xmlns="http://www.w3.org/2000/svg">
<path d="M24.7155 39.2845C24.3217 39.6783 23.6821 39.6745 23.293 39.2762L22.5906 38.557C22.2079 38.1652 22.2116 37.5384 22.5988 37.1512L32.5429 27.2071C33.1729 26.5771 32.7267 25.5 31.8358 25.5H9C8.44772 25.5 8 25.0523 8 24.5V23.5C8 22.9477 8.44772 22.5 9 22.5H31.8358C32.7267 22.5 33.1729 21.4229 32.5429 20.7929L22.5988 10.8488C22.2116 10.4616 22.2079 9.8348 22.5906 9.44299L23.293 8.72384C23.6821 8.32546 24.3217 8.3217 24.7155 8.71547L39.2929 23.2929C39.6834 23.6834 39.6834 24.3166 39.2929 24.7071L24.7155 39.2845Z" fill="white"/>
</svg>
