<svg width="188" height="188" viewBox="0 0 188 188" fill="none" xmlns="http://www.w3.org/2000/svg">
<path d="M39.1682 77.2407C54.1799 109.936 80.8917 135.931 114.101 150.023L119.425 152.395C131.604 157.822 145.922 153.699 153.35 142.627L160.307 132.257C162.569 128.886 161.88 124.346 158.72 121.797L135.128 102.763C131.662 99.9675 126.567 100.619 123.916 104.196L116.617 114.044C97.8891 104.806 82.6842 89.6013 73.446 70.8733L83.2945 63.5748C86.8717 60.9238 87.5228 55.8282 84.7272 52.3628L65.6932 28.7693C63.1447 25.6102 58.6052 24.9211 55.2341 27.1816L44.7935 34.1822C33.6518 41.653 29.5519 56.0886 35.1037 68.3004L39.162 77.2273L39.1682 77.2407Z" fill="black"/>
</svg>
